<svg xmlns="http://www.w3.org/2000/svg" xmlns:xlink="http://www.w3.org/1999/xlink" width="500" zoomAndPan="magnify" viewBox="0 0 375 374.999991" height="500" preserveAspectRatio="xMidYMid meet" version="1.2"><defs><clipPath id="c74b65eafb"><path d="M 126 151 L 143 151 L 143 218 L 126 218 Z M 126 151 "/></clipPath><clipPath id="2f0dcdaecf"><path d="M 169.796875 186.109375 L 134.628906 224.074219 L 96.664062 188.90625 L 131.832031 150.941406 Z M 169.796875 186.109375 "/></clipPath><clipPath id="3f28771dbf"><path d="M 169.796875 186.109375 L 134.628906 224.074219 L 96.664062 188.90625 L 131.832031 150.941406 Z M 169.796875 186.109375 "/></clipPath></defs><g id="88e900ad0e"><rect x="0" width="375" y="0" height="374.999991" style="fill:#ffffff;fill-opacity:1;stroke:none;"/><rect x="0" width="375" y="0" height="374.999991" style="fill:#000000;fill-opacity:1;stroke:none;"/><g clip-rule="nonzero" clip-path="url(#c74b65eafb)"><g clip-rule="nonzero" clip-path="url(#2f0dcdaecf)"><g clip-rule="nonzero" clip-path="url(#3f28771dbf)"><path style=" stroke:none;fill-rule:nonzero;fill:#ffffff;fill-opacity:1;" d="M 128.035156 216.179688 L 128.085938 217.515625 L 141.167969 217.015625 L 141.117188 215.679688 L 137.472656 215.816406 L 137.320312 211.804688 L 142.746094 211.597656 L 142.710938 210.703125 L 139.292969 210.835938 L 138.132812 180.507812 L 136.496094 180.570312 L 136.382812 177.597656 L 134.0625 171.433594 L 133.171875 171.46875 L 132.40625 151.472656 L 131.816406 151.496094 L 132.578125 171.492188 L 131.6875 171.523438 L 129.84375 177.847656 L 129.957031 180.820312 L 128.320312 180.882812 L 129.480469 211.210938 L 126.0625 211.339844 L 126.097656 212.234375 L 131.523438 212.027344 L 131.675781 216.039062 Z M 128.035156 216.179688 "/></g></g></g><g style="fill:#ffffff;fill-opacity:1;"><g transform="translate(42.787494, 219.942804)"><path style="stroke:none" d="M 18.359375 -35.5625 C 20.910156 -35.5625 23.085938 -35.09375 24.890625 -34.15625 C 26.703125 -33.226562 28.066406 -31.925781 28.984375 -30.25 C 29.910156 -28.570312 30.375 -26.617188 30.375 -24.390625 C 30.375 -22.171875 29.910156 -20.222656 28.984375 -18.546875 C 28.066406 -16.878906 26.703125 -15.578125 24.890625 -14.640625 C 23.085938 -13.710938 20.910156 -13.25 18.359375 -13.25 L 11.65625 -13.25 L 11.65625 0 L 4.625 0 L 4.625 -35.5625 Z M 17.4375 -18.828125 C 21.34375 -18.828125 23.296875 -20.679688 23.296875 -24.390625 C 23.296875 -28.117188 21.34375 -29.984375 17.4375 -29.984375 L 11.65625 -29.984375 L 11.65625 -18.828125 Z M 17.4375 -18.828125 "/></g></g><g style="fill:#ffffff;fill-opacity:1;"><g transform="translate(74.571878, 219.942804)"><path style="stroke:none" d="M 3.875 0 L 3.875 -26.828125 L 10.40625 -26.828125 L 10.40625 -22.84375 L 10.921875 -22.734375 C 11.566406 -24.234375 12.414062 -25.332031 13.46875 -26.03125 C 14.53125 -26.726562 15.8125 -27.078125 17.3125 -27.078125 C 18.84375 -27.078125 20.003906 -26.816406 20.796875 -26.296875 L 19.65625 -20.484375 L 19.140625 -20.375 C 18.703125 -20.5625 18.28125 -20.691406 17.875 -20.765625 C 17.46875 -20.847656 16.972656 -20.890625 16.390625 -20.890625 C 14.515625 -20.890625 13.082031 -20.226562 12.09375 -18.90625 C 11.101562 -17.582031 10.609375 -15.460938 10.609375 -12.546875 L 10.609375 0 Z M 3.875 0 "/></g></g><g style="fill:#ffffff;fill-opacity:1;"><g transform="translate(94.902157, 219.942804)"><path style="stroke:none" d="M 15.59375 0.515625 C 12.96875 0.515625 10.660156 -0.0195312 8.671875 -1.09375 C 6.679688 -2.175781 5.140625 -3.757812 4.046875 -5.84375 C 2.953125 -7.925781 2.40625 -10.445312 2.40625 -13.40625 C 2.40625 -16.351562 2.953125 -18.875 4.046875 -20.96875 C 5.140625 -23.0625 6.679688 -24.644531 8.671875 -25.71875 C 10.660156 -26.800781 12.96875 -27.34375 15.59375 -27.34375 C 18.21875 -27.34375 20.519531 -26.800781 22.5 -25.71875 C 24.488281 -24.644531 26.035156 -23.0625 27.140625 -20.96875 C 28.242188 -18.875 28.796875 -16.351562 28.796875 -13.40625 C 28.796875 -10.445312 28.242188 -7.925781 27.140625 -5.84375 C 26.035156 -3.757812 24.488281 -2.175781 22.5 -1.09375 C 20.519531 -0.0195312 18.21875 0.515625 15.59375 0.515625 Z M 15.59375 -5.203125 C 19.757812 -5.203125 21.84375 -7.9375 21.84375 -13.40625 C 21.84375 -16.238281 21.304688 -18.316406 20.234375 -19.640625 C 19.160156 -20.960938 17.613281 -21.625 15.59375 -21.625 C 11.425781 -21.625 9.34375 -18.882812 9.34375 -13.40625 C 9.34375 -7.9375 11.425781 -5.203125 15.59375 -5.203125 Z M 15.59375 -5.203125 "/></g></g><g style="fill:#ffffff;fill-opacity:1;"><g transform="translate(126.084364, 219.942804)"><path style="stroke:none" d=""/></g></g><g style="fill:#ffffff;fill-opacity:1;"><g transform="translate(137.830293, 219.942804)"><path style="stroke:none" d=""/></g></g><g style="fill:#ffffff;fill-opacity:1;"><g transform="translate(149.580456, 219.942804)"><path style="stroke:none" d="M 3.875 0 L 3.875 -26.828125 L 10.34375 -26.828125 L 10.34375 -22.890625 L 10.84375 -22.765625 C 12.519531 -25.816406 15.226562 -27.34375 18.96875 -27.34375 C 22.0625 -27.34375 24.332031 -26.5 25.78125 -24.8125 C 27.238281 -23.125 27.96875 -20.664062 27.96875 -17.4375 L 27.96875 0 L 21.234375 0 L 21.234375 -16.609375 C 21.234375 -18.390625 20.875 -19.671875 20.15625 -20.453125 C 19.445312 -21.242188 18.304688 -21.640625 16.734375 -21.640625 C 14.804688 -21.640625 13.300781 -21.015625 12.21875 -19.765625 C 11.144531 -18.523438 10.609375 -16.566406 10.609375 -13.890625 L 10.609375 0 Z M 3.875 0 "/></g></g><g style="fill:#ffffff;fill-opacity:1;"><g transform="translate(181.000208, 219.942804)"><path style="stroke:none" d="M 7.21875 -30.03125 C 6.007812 -30.03125 5.019531 -30.398438 4.25 -31.140625 C 3.488281 -31.878906 3.109375 -32.832031 3.109375 -34 C 3.109375 -35.15625 3.488281 -36.097656 4.25 -36.828125 C 5.019531 -37.566406 6.007812 -37.9375 7.21875 -37.9375 C 8.03125 -37.9375 8.753906 -37.765625 9.390625 -37.421875 C 10.023438 -37.085938 10.515625 -36.625 10.859375 -36.03125 C 11.210938 -35.4375 11.390625 -34.757812 11.390625 -34 C 11.390625 -33.238281 11.210938 -32.554688 10.859375 -31.953125 C 10.515625 -31.359375 10.023438 -30.890625 9.390625 -30.546875 C 8.753906 -30.203125 8.03125 -30.03125 7.21875 -30.03125 Z M 2.09375 11.390625 C 0.113281 11.390625 -1.472656 11.128906 -2.671875 10.609375 L -1.84375 5.296875 L -1.390625 5.15625 C -0.734375 5.46875 0.03125 5.625 0.90625 5.625 C 2.882812 5.625 3.875 4.453125 3.875 2.109375 L 3.875 -26.828125 L 10.609375 -26.828125 L 10.609375 1.921875 C 10.609375 5.046875 9.882812 7.40625 8.4375 9 C 7 10.59375 4.882812 11.390625 2.09375 11.390625 Z M 2.09375 11.390625 "/></g></g><g style="fill:#ffffff;fill-opacity:1;"><g transform="translate(195.445511, 219.942804)"><path style="stroke:none" d="M 26.515625 -11.890625 L 9.265625 -11.890625 C 9.460938 -9.554688 10.128906 -7.859375 11.265625 -6.796875 C 12.398438 -5.734375 13.945312 -5.203125 15.90625 -5.203125 C 17.445312 -5.203125 18.695312 -5.488281 19.65625 -6.0625 C 20.613281 -6.644531 21.382812 -7.519531 21.96875 -8.6875 L 22.46875 -8.6875 L 26.953125 -5.8125 C 26.078125 -3.925781 24.753906 -2.398438 22.984375 -1.234375 C 21.210938 -0.0664062 18.851562 0.515625 15.90625 0.515625 C 13.132812 0.515625 10.738281 -0.0078125 8.71875 -1.0625 C 6.695312 -2.125 5.140625 -3.695312 4.046875 -5.78125 C 2.953125 -7.863281 2.40625 -10.40625 2.40625 -13.40625 C 2.40625 -16.445312 2.976562 -19.015625 4.125 -21.109375 C 5.28125 -23.203125 6.835938 -24.765625 8.796875 -25.796875 C 10.765625 -26.828125 12.972656 -27.34375 15.421875 -27.34375 C 19.210938 -27.34375 22.117188 -26.335938 24.140625 -24.328125 C 26.160156 -22.316406 27.171875 -19.363281 27.171875 -15.46875 C 27.171875 -14.0625 27.117188 -12.96875 27.015625 -12.1875 Z M 20.71875 -16.25 C 20.65625 -18.289062 20.179688 -19.773438 19.296875 -20.703125 C 18.410156 -21.640625 17.117188 -22.109375 15.421875 -22.109375 C 12.015625 -22.109375 10.007812 -20.15625 9.40625 -16.25 Z M 20.71875 -16.25 "/></g></g><g style="fill:#ffffff;fill-opacity:1;"><g transform="translate(224.603625, 219.942804)"><path style="stroke:none" d="M 15.640625 0.515625 C 13.046875 0.515625 10.75 -0.0195312 8.75 -1.09375 C 6.757812 -2.175781 5.203125 -3.765625 4.078125 -5.859375 C 2.960938 -7.953125 2.40625 -10.46875 2.40625 -13.40625 C 2.40625 -16.351562 2.960938 -18.875 4.078125 -20.96875 C 5.203125 -23.0625 6.753906 -24.644531 8.734375 -25.71875 C 10.710938 -26.800781 12.972656 -27.34375 15.515625 -27.34375 C 21.171875 -27.34375 24.796875 -25.289062 26.390625 -21.1875 L 21.765625 -17.875 L 21.265625 -17.875 C 20.710938 -19.144531 19.992188 -20.085938 19.109375 -20.703125 C 18.222656 -21.316406 17.023438 -21.625 15.515625 -21.625 C 13.566406 -21.625 12.050781 -20.945312 10.96875 -19.59375 C 9.882812 -18.25 9.34375 -16.1875 9.34375 -13.40625 C 9.34375 -10.644531 9.890625 -8.585938 10.984375 -7.234375 C 12.085938 -5.878906 13.640625 -5.203125 15.640625 -5.203125 C 17.097656 -5.203125 18.332031 -5.59375 19.34375 -6.375 C 20.363281 -7.164062 21.09375 -8.300781 21.53125 -9.78125 L 22.03125 -9.828125 L 26.828125 -7.203125 C 26.148438 -4.929688 24.890625 -3.078125 23.046875 -1.640625 C 21.203125 -0.203125 18.734375 0.515625 15.640625 0.515625 Z M 15.640625 0.515625 "/></g></g><g style="fill:#ffffff;fill-opacity:1;"><g transform="translate(252.253979, 219.942804)"><path style="stroke:none" d="M 18.515625 -6.390625 L 20.265625 -1.40625 C 19.535156 -0.8125 18.617188 -0.34375 17.515625 0 C 16.410156 0.34375 15.160156 0.515625 13.765625 0.515625 C 10.859375 0.515625 8.648438 -0.273438 7.140625 -1.859375 C 5.640625 -3.441406 4.890625 -5.738281 4.890625 -8.75 L 4.890625 -21.5 L 0.796875 -21.5 L 0.796875 -26.859375 L 4.890625 -26.859375 L 4.890625 -32.078125 L 11.625 -33.171875 L 11.625 -26.859375 L 19.234375 -26.859375 L 19.234375 -21.5 L 11.625 -21.5 L 11.625 -9.25 C 11.625 -7.914062 11.898438 -6.941406 12.453125 -6.328125 C 13.003906 -5.722656 13.804688 -5.421875 14.859375 -5.421875 C 16.054688 -5.421875 17.101562 -5.742188 18 -6.390625 Z M 18.515625 -6.390625 "/></g></g><g style="fill:#ffffff;fill-opacity:1;"><g transform="translate(272.778888, 219.942804)"><path style="stroke:none" d="M 15.59375 0.515625 C 12.96875 0.515625 10.660156 -0.0195312 8.671875 -1.09375 C 6.679688 -2.175781 5.140625 -3.757812 4.046875 -5.84375 C 2.953125 -7.925781 2.40625 -10.445312 2.40625 -13.40625 C 2.40625 -16.351562 2.953125 -18.875 4.046875 -20.96875 C 5.140625 -23.0625 6.679688 -24.644531 8.671875 -25.71875 C 10.660156 -26.800781 12.96875 -27.34375 15.59375 -27.34375 C 18.21875 -27.34375 20.519531 -26.800781 22.5 -25.71875 C 24.488281 -24.644531 26.035156 -23.0625 27.140625 -20.96875 C 28.242188 -18.875 28.796875 -16.351562 28.796875 -13.40625 C 28.796875 -10.445312 28.242188 -7.925781 27.140625 -5.84375 C 26.035156 -3.757812 24.488281 -2.175781 22.5 -1.09375 C 20.519531 -0.0195312 18.21875 0.515625 15.59375 0.515625 Z M 15.59375 -5.203125 C 19.757812 -5.203125 21.84375 -7.9375 21.84375 -13.40625 C 21.84375 -16.238281 21.304688 -18.316406 20.234375 -19.640625 C 19.160156 -20.960938 17.613281 -21.625 15.59375 -21.625 C 11.425781 -21.625 9.34375 -18.882812 9.34375 -13.40625 C 9.34375 -7.9375 11.425781 -5.203125 15.59375 -5.203125 Z M 15.59375 -5.203125 "/></g></g><g style="fill:#ffffff;fill-opacity:1;"><g transform="translate(303.955453, 219.942804)"><path style="stroke:none" d="M 3.875 0 L 3.875 -26.828125 L 10.40625 -26.828125 L 10.40625 -22.84375 L 10.921875 -22.734375 C 11.566406 -24.234375 12.414062 -25.332031 13.46875 -26.03125 C 14.53125 -26.726562 15.8125 -27.078125 17.3125 -27.078125 C 18.84375 -27.078125 20.003906 -26.816406 20.796875 -26.296875 L 19.65625 -20.484375 L 19.140625 -20.375 C 18.703125 -20.5625 18.28125 -20.691406 17.875 -20.765625 C 17.46875 -20.847656 16.972656 -20.890625 16.390625 -20.890625 C 14.515625 -20.890625 13.082031 -20.226562 12.09375 -18.90625 C 11.101562 -17.582031 10.609375 -15.460938 10.609375 -12.546875 L 10.609375 0 Z M 3.875 0 "/></g></g></g></svg>